<?xml version="1.0" standalone="no"?>
<!DOCTYPE svg PUBLIC "-//W3C//DTD SVG 20010904//EN"
 "http://www.w3.org/TR/2001/REC-SVG-20010904/DTD/svg10.dtd">
<svg version="1.0" xmlns="http://www.w3.org/2000/svg"
 width="512.000000pt" height="512.000000pt" viewBox="0 0 512.000000 512.000000"
 preserveAspectRatio="xMidYMid meet">
<metadata>
Created by potrace 1.11, written by Peter Selinger 2001-2013
</metadata>
<g transform="translate(0.000000,512.000000) scale(0.100000,-0.100000)"
fill="#000000" stroke="none">
<path d="M92 4923 c-18 -9 -45 -32 -60 -51 -22 -29 -27 -47 -29 -101 -3 -102
42 -168 125 -186 l32 -7 1 -1761 c0 -969 2 -1784 5 -1812 5 -66 21 -135 51
-220 107 -306 390 -540 718 -593 84 -14 287 -5 367 17 257 68 474 238 592 462
l34 66 78 -71 c283 -254 605 -407 984 -467 104 -17 417 -17 515 -1 39 6 86 14
105 16 58 8 220 54 300 85 514 198 897 580 1088 1087 87 232 120 425 116 689
-2 150 -8 208 -39 370 -19 104 -82 281 -145 410 -146 297 -365 547 -637 729
-96 63 -279 162 -341 184 l-32 11 0 400 c0 375 1 401 18 402 102 4 182 87 182
188 0 44 -40 111 -84 139 l-41 27 -705 2 c-689 2 -706 2 -747 -18 -62 -31 -98
-89 -98 -158 1 -95 60 -162 156 -177 l39 -7 0 -392 0 -393 -27 -7 c-16 -3 -86
-35 -158 -69 -136 -65 -291 -164 -386 -247 -31 -27 -59 -49 -63 -49 -3 0 -6
261 -6 579 l0 579 33 7 c84 18 132 92 125 190 -6 68 -25 104 -72 138 l-31 22
-965 2 c-879 3 -968 1 -998 -14z"/>
</g>
</svg>
